# xmcd
#
# Track frame offsets: 
#        150
#        33829
#        65511
#        87313
#        114075
#        136476
#        169392
#        187051
#        209762
#        224401
#
# Disc length: 3209 seconds
#
# Revision: 19
# Processed by: cddbd v1.5.2PL0 Copyright (c) Steve Scherf et al.
# Submitted via: ExactAudioCopy v0.99pb5
#
DISCID=980c870a
DTITLE=Friedrich Gulda - Beethoven - Piano Sonatas Op. 7, Op. 10 No. 1
DTITLE=and No. 2
DYEAR=1967
DGENRE=Piano
TTITLE0=01. Piano Sonata in E flat major Op. 7 - 1. Allegro molto e co
TTITLE0=n brio
TTITLE1=02. Piano Sonata in E flat major Op. 7 - 2. Largo, con gran es
TTITLE1=pressione
TTITLE2=03. Piano Sonata in E flat major Op. 7 - 3. Allegro
TTITLE3=04. Piano Sonata in E flat major Op. 7 - 4. Rondo, poco allegr
TTITLE3=etto e grazioso
TTITLE4=05. Piano Sonata in C minor Op. 10 No. 1 - 1. Allegro molto e 
TTITLE4=con brio
TTITLE5=06. Piano Sonata in C minor Op. 10 No. 1 - 2. Adagio molto
TTITLE6=07. Piano Sonata in C minor Op. 10 No. 1 - 3. Finale, prestiss
TTITLE6=imo
TTITLE7=08. Piano Sonata in F major Op. 10 No. 2 - 1. Allegro
TTITLE8=09. Piano Sonata in F major Op. 10 No. 2 - 2. Allegretto
TTITLE9=10. Piano Sonata in F major Op. 10 No. 2 - 3. Presto
EXTD=YEAR: 1967
EXTT0=
EXTT1=
EXTT2=
EXTT3=
EXTT4=
EXTT5=
EXTT6=
EXTT7=
EXTT8=
EXTT9=
PLAYORDER=
